<svg width="308" height="632" viewBox="0 0 308 632" fill="none" xmlns="http://www.w3.org/2000/svg">

  <path
    d="M1 54.5C1 24.9528 24.9528 1 54.5 1H253.5C283.047 1 307 24.9528 307 54.5V577.5C307 607.047 283.047 631 253.5 631H54.5C24.9528 631 1 607.047 1 577.5V54.5Z"
    stroke="#737373"/>

  <path
    d="m17,55.5c0,-24.58 19.92,-44.5 44.5,-44.5l14,0c6.35,0 11.5,5.15 11.5,11.5c0,8.01 6.49,14.5 14.5,14.5l95,0c8.01,0 14.5,-6.49 14.5,-14.5c0,-6.35 5.15,-11.5 11.5,-11.5l24,0c24.58,0 44.5,19.92 44.5,44.5l0,521c0,24.58 -19.92,44.5 -44.5,44.5l-185,0c-24.58,0 -44.5,-19.92 -44.5,-44.5l0,-521z"
    fill="white" id="svg_2" stroke="#737373"/>
</svg>
